<svg width="16" height="16" viewBox="0 0 16 16" fill="none" xmlns="http://www.w3.org/2000/svg">
<path d="M9.22578 11.6833C9.22178 11.6846 8.85312 11.8073 8.53312 11.8073C8.35645 11.8073 8.28512 11.7706 8.26245 11.7546C8.15045 11.6766 7.94245 11.5306 8.29845 10.8213L8.96512 9.49192C9.36045 8.70258 9.41912 7.93925 9.12845 7.34192C8.89112 6.85325 8.43578 6.51792 7.84845 6.39792C7.63828 6.3549 7.42431 6.33324 7.20978 6.33325C5.97712 6.33325 5.14712 7.05325 5.11245 7.08392C5.05457 7.13493 5.01618 7.20444 5.00382 7.28059C4.99146 7.35675 5.0059 7.43483 5.04467 7.50153C5.08345 7.56822 5.14416 7.61941 5.21645 7.64635C5.28875 7.67328 5.36815 7.67431 5.44112 7.64925C5.44445 7.64792 5.81378 7.52459 6.13378 7.52459C6.30912 7.52459 6.37978 7.56125 6.40178 7.57659C6.51445 7.65525 6.72312 7.80325 6.36778 8.51125L5.70112 9.84125C5.30512 10.6313 5.24712 11.3946 5.53778 11.9913C5.77512 12.4799 6.22978 12.8153 6.81845 12.9353C7.02778 12.9773 7.24245 12.9999 7.45445 12.9999C8.68778 12.9999 9.51845 12.2799 9.55312 12.2493C9.61105 12.1984 9.64954 12.129 9.66204 12.0529C9.67454 11.9768 9.66027 11.8987 9.62167 11.832C9.58306 11.7652 9.52251 11.7139 9.45033 11.6868C9.37814 11.6597 9.29879 11.6584 9.22578 11.6833Z" fill="#999999"/>
<path d="M8.66667 5.66732C9.58714 5.66732 10.3333 4.92113 10.3333 4.00065C10.3333 3.08018 9.58714 2.33398 8.66667 2.33398C7.74619 2.33398 7 3.08018 7 4.00065C7 4.92113 7.74619 5.66732 8.66667 5.66732Z" fill="#999999"/>
</svg>
