<svg width="12" height="14" viewBox="0 0 12 14" fill="none" xmlns="http://www.w3.org/2000/svg">
<path d="M5.99984 0.333252C4.58584 0.33484 3.23021 0.897253 2.23036 1.8971C1.2305 2.89695 0.668092 4.25258 0.666504 5.66658C0.666504 7.83659 2.24184 9.63859 3.9105 11.5459C4.4385 12.1499 4.98517 12.7746 5.47184 13.4066C5.53412 13.4874 5.6141 13.5528 5.70564 13.5978C5.79718 13.6428 5.89783 13.6662 5.99984 13.6662C6.10185 13.6662 6.20249 13.6428 6.29403 13.5978C6.38557 13.5528 6.46556 13.4874 6.52784 13.4066C7.0145 12.7746 7.56117 12.1499 8.08917 11.5459C9.75784 9.63859 11.3332 7.83659 11.3332 5.66658C11.3316 4.25258 10.7692 2.89695 9.76932 1.8971C8.76947 0.897253 7.41384 0.33484 5.99984 0.333252ZM5.99984 7.66658C5.60427 7.66658 5.2176 7.54929 4.8887 7.32952C4.5598 7.10976 4.30345 6.7974 4.15208 6.43195C4.0007 6.0665 3.9611 5.66437 4.03827 5.2764C4.11544 4.88844 4.30592 4.53208 4.58562 4.25237C4.86533 3.97267 5.22169 3.78219 5.60966 3.70501C5.99762 3.62784 6.39975 3.66745 6.7652 3.81883C7.13066 3.9702 7.44301 4.22655 7.66278 4.55544C7.88254 4.88434 7.99984 5.27102 7.99984 5.66658C7.99984 6.19702 7.78912 6.70573 7.41405 7.0808C7.03898 7.45587 6.53027 7.66658 5.99984 7.66658Z" fill="#999999"/>
</svg>
