<svg width="18" height="16" viewBox="0 0 18 16" fill="none" xmlns="http://www.w3.org/2000/svg">
<path d="M16.5 6.74996H15.6666V5.91663C15.6666 5.69561 15.5788 5.48365 15.4225 5.32737C15.2663 5.17109 15.0543 5.08329 14.8333 5.08329C14.6123 5.08329 14.4003 5.17109 14.244 5.32737C14.0878 5.48365 14 5.69561 14 5.91663V6.74996H13.1666C12.9456 6.74996 12.7336 6.83776 12.5774 6.99404C12.4211 7.15032 12.3333 7.36228 12.3333 7.58329C12.3333 7.80431 12.4211 8.01627 12.5774 8.17255C12.7336 8.32883 12.9456 8.41663 13.1666 8.41663H14V9.24996C14 9.47097 14.0878 9.68293 14.244 9.83922C14.4003 9.9955 14.6123 10.0833 14.8333 10.0833C15.0543 10.0833 15.2663 9.9955 15.4225 9.83922C15.5788 9.68293 15.6666 9.47097 15.6666 9.24996V8.41663H16.5C16.721 8.41663 16.9329 8.32883 17.0892 8.17255C17.2455 8.01627 17.3333 7.80431 17.3333 7.58329C17.3333 7.36228 17.2455 7.15032 17.0892 6.99404C16.9329 6.83776 16.721 6.74996 16.5 6.74996ZM10.0833 8.18329C10.5279 7.7984 10.8846 7.32236 11.129 6.78748C11.3735 6.25259 11.5 5.67138 11.5 5.08329C11.5 3.97822 11.061 2.91842 10.2796 2.13701C9.49817 1.35561 8.43836 0.916626 7.33329 0.916626C6.22822 0.916626 5.16842 1.35561 4.38701 2.13701C3.60561 2.91842 3.16663 3.97822 3.16663 5.08329C3.16662 5.67138 3.29313 6.25259 3.53756 6.78748C3.782 7.32236 4.13864 7.7984 4.58329 8.18329C3.41674 8.71153 2.42701 9.56457 1.73244 10.6404C1.03787 11.7163 0.667853 12.9694 0.666626 14.25C0.666626 14.471 0.754423 14.6829 0.910704 14.8392C1.06698 14.9955 1.27895 15.0833 1.49996 15.0833C1.72097 15.0833 1.93293 14.9955 2.08921 14.8392C2.2455 14.6829 2.33329 14.471 2.33329 14.25C2.33329 12.9239 2.86008 11.6521 3.79776 10.7144C4.73544 9.77674 6.00721 9.24996 7.33329 9.24996C8.65937 9.24996 9.93114 9.77674 10.8688 10.7144C11.8065 11.6521 12.3333 12.9239 12.3333 14.25C12.3333 14.471 12.4211 14.6829 12.5774 14.8392C12.7336 14.9955 12.9456 15.0833 13.1666 15.0833C13.3876 15.0833 13.5996 14.9955 13.7559 14.8392C13.9122 14.6829 14 14.471 14 14.25C13.9987 12.9694 13.6287 11.7163 12.9341 10.6404C12.2396 9.56457 11.2498 8.71153 10.0833 8.18329V8.18329ZM7.33329 7.58329C6.83884 7.58329 6.35549 7.43667 5.94437 7.16197C5.53324 6.88726 5.21281 6.49682 5.02359 6.04C4.83437 5.58319 4.78487 5.08052 4.88133 4.59557C4.97779 4.11061 5.21589 3.66516 5.56553 3.31553C5.91516 2.96589 6.36061 2.72779 6.84557 2.63133C7.33052 2.53487 7.83319 2.58437 8.29 2.77359C8.74682 2.96281 9.13726 3.28324 9.41197 3.69437C9.68667 4.10549 9.83329 4.58884 9.83329 5.08329C9.83329 5.74633 9.5699 6.38222 9.10106 6.85106C8.63222 7.3199 7.99633 7.58329 7.33329 7.58329Z" fill="#105671"/>
</svg>
